# xmcd
#
# Track frame offsets:
#	150
#	10711
#	20701
#	31599
#	44356
#	53341
#	64194
#	73665
#	85387
#	96516
#	109030
#	119338
#	133264
#	144532
#	156586
#	169476
#	181255
#	192660
#	202094
#	211044
#
# Disc length: 2973 seconds
#
# Revision: 1
# Processed by: cddbd v1.5.2PL0 Copyright (c) Steve Scherf et al.
# Submitted via: audiograbber 1.83.01
#
DISCID=280b9b14
DTITLE=George Jones - Country Classics
DYEAR=2008
DGENRE=Country
TTITLE0=Why Baby Why
TTITLE1=Too Much Water
TTITLE2=Who Shot Sam
TTITLE3=White Lightning
TTITLE4=The Love Bug
TTITLE5=Let A Little Lovin' Come In
TTITLE6=The Race Is On
TTITLE7=She Thinks I Still Care
TTITLE8=Tender Years
TTITLE9=Blue Side of Lonesome
TTITLE10=Don't Stop The Music
TTITLE11=Family Bible
TTITLE12=Life To Go
TTITLE13=You're Still On My Mind
TTITLE14=Achin' Breakin' Heart
TTITLE15=The Window Up Above
TTITLE16=Mr. Fool
TTITLE17=Big Harlan Taylor
TTITLE18=If I Don't Love You
TTITLE19=Money To Burn
EXTD=
EXTT0=
EXTT1=
EXTT2=
EXTT3=
EXTT4=
EXTT5=
EXTT6=
EXTT7=
EXTT8=
EXTT9=
EXTT10=
EXTT11=
EXTT12=
EXTT13=
EXTT14=
EXTT15=
EXTT16=
EXTT17=
EXTT18=
EXTT19=
PLAYORDER=
